# xmcd
#
# Track frame offsets:
#	150
#	12520
#	25174
#	36369
#	49061
#	60217
#	72583
#	85791
#	99763
#	111146
#	124278
#	137099
#	151281
#	166038
#	177401
#	190636
#	203165
#	213268
#	225440
#	238776
#	251557
#	263946
#	275083
#	287951
#
# Disc length: 3990 seconds
#
# Revision: 0
# Processed by: cddbd v1.5.2PL0 Copyright (c) Steve Scherf et al.
# Submitted via: audiograbber 1.83.01
#
DISCID=520f9418
DTITLE=Various Artist - Chicago Slickers 1948-1955
DYEAR=2017
DGENRE=Blues
TTITLE0=Little Walter - I Want My Baby
TTITLE1=Floyd Jones - School Days
TTITLE2=Floyd Jones - Hard Time
TTITLE3=Forest City Joe - A Woman On Every Street
TTITLE4=Little Walter - Just Keep Loving Her
TTITLE5=John Brim - Dark Clouds
TTITLE6=John Brim - Lonesome Man Blues
TTITLE7=Earl Hooker - Sweet Angel
TTITLE8=Johnny Shines - Ramblin'
TTITLE9=Johnny Shines - Cool Driver
TTITLE10=Homesick James - Lonesome Old Train
TTITLE11=Homesick James - Farmer's Blues
TTITLE12=Delta Joe - Train Time (4 O'clock Blues)
TTITLE13=Big Boy Spires - About To Lose My Mind
TTITLE14=Floyd Jones - Early Morning
TTITLE15=Robert Nighthawk - Maggie Campbell
TTITLE16=Little Walter - Blue Baby
TTITLE17=Man Young - Let Me Ride Your Mule
TTITLE18=Man Young - My Baby Walked Out
TTITLE19=Robert Nighthawk - My Sweet Lovin' Woman
TTITLE20=Grace Brim - Goin' Down The Line
TTITLE21=Johnny Shines - Living In The White House
TTITLE22=Willie Nix - No More Love
TTITLE23=Willie Nix - Nervous Wreck
EXTD=
EXTT0=
EXTT1=
EXTT2=
EXTT3=
EXTT4=
EXTT5=
EXTT6=
EXTT7=
EXTT8=
EXTT9=
EXTT10=
EXTT11=
EXTT12=
EXTT13=
EXTT14=
EXTT15=
EXTT16=
EXTT17=
EXTT18=
EXTT19=
EXTT20=
EXTT21=
EXTT22=
EXTT23=
PLAYORDER=
